<svg width="416" height="295" viewBox="0 0 416 295" fill="none" xmlns="http://www.w3.org/2000/svg">
<rect width="416" height="294" transform="translate(0 0.0229492)" fill="white"/>
<rect opacity="0.4" x="181.182" y="18.4688" width="140" height="56" rx="8" fill="#5E4EFF"/>
<rect x="177.182" y="14.4688" width="140" height="56" rx="8" fill="white" stroke="#5E4EFF"/>
<path d="M198.705 37.2767C199.825 37.2767 200.721 37.5287 201.365 38.0467C202.037 38.5787 202.415 39.3767 202.513 40.4267H201.379C201.253 39.6987 200.973 39.1667 200.539 38.8167C200.091 38.4527 199.461 38.2847 198.649 38.2847C197.907 38.2847 197.333 38.3967 196.913 38.6487C196.437 38.9287 196.199 39.3487 196.199 39.9227C196.199 40.4267 196.479 40.8327 197.053 41.1407C197.305 41.2807 197.921 41.4907 198.887 41.7707C200.203 42.1627 201.071 42.4847 201.491 42.7367C202.317 43.2407 202.737 43.9407 202.737 44.8507C202.737 45.7188 202.387 46.4187 201.687 46.9227C200.987 47.4127 200.049 47.6648 198.859 47.6648C197.683 47.6648 196.759 47.4127 196.087 46.9087C195.303 46.3067 194.869 45.3967 194.785 44.1647H195.919C196.017 45.0327 196.325 45.6767 196.829 46.0827C197.291 46.4467 197.963 46.6427 198.859 46.6427C199.671 46.6427 200.343 46.4887 200.847 46.1807C201.351 45.8727 201.603 45.4527 201.603 44.9207C201.603 44.2907 201.267 43.8007 200.609 43.4507C200.329 43.2827 199.615 43.0447 198.495 42.7227C197.291 42.3587 196.521 42.0787 196.199 41.9107C195.429 41.4627 195.051 40.8187 195.051 39.9787C195.051 39.1107 195.415 38.4247 196.157 37.9487C196.815 37.5007 197.669 37.2767 198.705 37.2767ZM207.173 40.0347C208.069 40.0347 208.783 40.2447 209.329 40.6647C209.889 41.0987 210.225 41.7567 210.351 42.6387H209.245C209.147 42.0787 208.923 41.6587 208.573 41.3787C208.209 41.0987 207.747 40.9727 207.173 40.9727C206.473 40.9727 205.913 41.2387 205.507 41.7707C205.115 42.2887 204.919 42.9887 204.919 43.8708C204.919 44.7527 205.101 45.4527 205.493 45.9567C205.871 46.4607 206.431 46.7267 207.159 46.7267C208.391 46.7267 209.105 46.0967 209.273 44.8507H210.393C210.225 45.7747 209.875 46.4887 209.315 46.9647C208.769 47.4267 208.055 47.6648 207.159 47.6648C206.067 47.6648 205.227 47.3007 204.625 46.5727C204.051 45.8867 203.771 44.9907 203.771 43.8847C203.771 42.7787 204.051 41.8827 204.625 41.1827C205.241 40.4127 206.095 40.0347 207.173 40.0347ZM211.707 37.2767H212.827V41.4207C213.079 40.9587 213.415 40.6087 213.835 40.3707C214.227 40.1467 214.661 40.0347 215.151 40.0347C215.991 40.0347 216.649 40.2728 217.097 40.7767C217.545 41.2667 217.769 41.9807 217.769 42.9047V47.4688H216.649V43.0727C216.649 42.4007 216.481 41.8827 216.173 41.5187C215.837 41.1547 215.375 40.9727 214.773 40.9727C214.213 40.9727 213.751 41.1967 213.387 41.6447C213.009 42.0927 212.827 42.6667 212.827 43.3387V47.4688H211.707V37.2767ZM222.468 40.0347C223.63 40.0347 224.512 40.4267 225.1 41.2107C225.632 41.9107 225.912 42.9047 225.94 44.1647H220.228C220.284 44.9767 220.494 45.6067 220.886 46.0547C221.278 46.5027 221.824 46.7267 222.51 46.7267C223.098 46.7267 223.588 46.5727 223.952 46.2787C224.26 46.0267 224.498 45.6487 224.68 45.1447H225.8C225.632 45.8447 225.31 46.4047 224.82 46.8527C224.218 47.3847 223.448 47.6648 222.51 47.6648C221.474 47.6648 220.634 47.3147 220.018 46.6427C219.374 45.9427 219.066 45.0187 219.066 43.8427C219.066 42.7787 219.36 41.8827 219.976 41.1687C220.592 40.4127 221.418 40.0347 222.468 40.0347ZM222.496 40.9727C221.852 40.9727 221.334 41.1827 220.942 41.6027C220.55 42.0227 220.326 42.5827 220.256 43.2967H224.778C224.638 41.7427 223.868 40.9727 222.496 40.9727ZM230.416 40.0347C231.522 40.0347 232.278 40.4827 232.684 41.4067C232.964 40.9307 233.3 40.5807 233.692 40.3707C234.042 40.1467 234.462 40.0347 234.966 40.0347C235.722 40.0347 236.324 40.2728 236.8 40.7487C237.248 41.2387 237.486 41.8967 237.486 42.7227V47.4688H236.366V42.9047C236.366 42.2607 236.226 41.7847 235.96 41.4767C235.68 41.1407 235.232 40.9867 234.616 40.9867C234.14 40.9867 233.734 41.1547 233.426 41.5187C233.09 41.8827 232.936 42.3447 232.936 42.9327V47.4688H231.816V42.9047C231.816 41.6167 231.256 40.9867 230.15 40.9867C229.632 40.9867 229.212 41.1827 228.876 41.6027C228.54 41.9947 228.372 42.4847 228.372 43.0587V47.4688H227.252V40.2307H228.372V41.1967C228.918 40.4127 229.604 40.0347 230.416 40.0347ZM242.378 40.0347C243.414 40.0347 244.17 40.3007 244.674 40.8467C245.094 41.3227 245.318 41.9807 245.318 42.8207V47.4688H244.268V46.2507C243.988 46.6427 243.61 46.9647 243.162 47.2167C242.63 47.5108 242.028 47.6648 241.356 47.6648C240.628 47.6648 240.054 47.4828 239.62 47.1187C239.172 46.7407 238.948 46.2507 238.948 45.6627C238.948 44.8367 239.27 44.2207 239.942 43.8007C240.53 43.4087 241.37 43.1987 242.462 43.1847L244.198 43.1567V42.7787C244.198 41.5607 243.568 40.9587 242.308 40.9587C241.776 40.9587 241.342 41.0567 241.006 41.2807C240.628 41.5047 240.39 41.8547 240.278 42.3167L239.172 42.2327C239.326 41.4767 239.704 40.9027 240.292 40.5387C240.824 40.2027 241.51 40.0347 242.378 40.0347ZM244.198 43.9967L242.532 44.0247C240.908 44.0527 240.096 44.5847 240.096 45.6347C240.096 45.9707 240.222 46.2367 240.502 46.4607C240.782 46.6707 241.146 46.7827 241.594 46.7827C242.28 46.7827 242.882 46.5587 243.414 46.1107C243.932 45.6767 244.198 45.1727 244.198 44.6127V43.9967ZM251.851 37.4727H256.163C257.157 37.4727 257.941 37.6967 258.515 38.1587C259.103 38.6347 259.411 39.3347 259.411 40.2587C259.411 40.8187 259.257 41.3087 258.949 41.7427C258.613 42.1907 258.165 42.4707 257.591 42.6107V42.6387C258.543 42.8487 259.075 43.4507 259.187 44.4587L259.341 45.9987C259.397 46.6147 259.579 47.1047 259.873 47.4688H258.627C258.403 47.1327 258.263 46.6987 258.221 46.1387L258.095 44.8087C258.039 44.2207 257.829 43.7867 257.465 43.5347C257.129 43.2827 256.653 43.1707 256.023 43.1707H252.999V47.4688H251.851V37.4727ZM252.999 38.4667V42.1767H256.023C256.751 42.1767 257.325 41.9947 257.717 41.6587C258.067 41.3367 258.249 40.8887 258.249 40.3007C258.249 39.6847 258.067 39.2227 257.731 38.9287C257.367 38.6207 256.793 38.4667 256.023 38.4667H252.999ZM264.154 40.0347C265.316 40.0347 266.198 40.4267 266.786 41.2107C267.318 41.9107 267.598 42.9047 267.626 44.1647H261.914C261.97 44.9767 262.18 45.6067 262.572 46.0547C262.964 46.5027 263.51 46.7267 264.196 46.7267C264.784 46.7267 265.274 46.5727 265.638 46.2787C265.946 46.0267 266.184 45.6487 266.366 45.1447H267.486C267.318 45.8447 266.996 46.4047 266.506 46.8527C265.904 47.3847 265.134 47.6648 264.196 47.6648C263.16 47.6648 262.32 47.3147 261.704 46.6427C261.06 45.9427 260.752 45.0187 260.752 43.8427C260.752 42.7787 261.046 41.8827 261.662 41.1687C262.278 40.4127 263.104 40.0347 264.154 40.0347ZM264.182 40.9727C263.538 40.9727 263.02 41.1827 262.628 41.6027C262.236 42.0227 262.012 42.5827 261.942 43.2967H266.464C266.324 41.7427 265.554 40.9727 264.182 40.9727ZM271.919 40.0347C273.011 40.0347 273.823 40.5107 274.355 41.4767V40.2307H275.475V46.9647C275.475 49.2748 274.369 50.4368 272.171 50.4368C271.191 50.4368 270.435 50.2408 269.931 49.8488C269.413 49.4568 269.091 48.8688 268.965 48.0848H270.085C270.169 48.5748 270.379 48.9388 270.701 49.1628C271.023 49.4008 271.513 49.5267 272.171 49.5267C273.627 49.5267 274.355 48.7148 274.355 47.1187V45.8447C273.823 46.8107 273.011 47.3007 271.919 47.3007C270.911 47.3007 270.113 46.9507 269.525 46.2647C268.937 45.5927 268.657 44.7387 268.657 43.6887C268.657 42.6247 268.937 41.7707 269.525 41.0987C270.113 40.3847 270.911 40.0347 271.919 40.0347ZM272.087 40.9587C271.359 40.9587 270.799 41.2107 270.393 41.7427C270.001 42.2187 269.805 42.8767 269.805 43.6887C269.805 44.4447 269.973 45.0747 270.323 45.5507C270.715 46.0827 271.289 46.3627 272.073 46.3627C272.801 46.3627 273.361 46.1107 273.781 45.6067C274.173 45.1167 274.369 44.4727 274.369 43.6887C274.369 42.8767 274.173 42.2187 273.781 41.7427C273.361 41.2107 272.801 40.9587 272.087 40.9587ZM278.133 37.5007C278.371 37.5007 278.567 37.5707 278.735 37.7387C278.903 37.8787 278.987 38.0747 278.987 38.3267C278.987 38.5647 278.903 38.7607 278.735 38.9287C278.567 39.0827 278.371 39.1667 278.133 39.1667C277.895 39.1667 277.699 39.0827 277.531 38.9287C277.363 38.7607 277.293 38.5647 277.293 38.3267C277.293 38.0747 277.363 37.8787 277.531 37.7387C277.699 37.5707 277.895 37.5007 278.133 37.5007ZM277.573 40.2307H278.693V47.4688H277.573V40.2307ZM283.353 40.0347C285.145 40.0347 286.125 40.7767 286.321 42.2887H285.229C285.131 41.8407 284.949 41.5047 284.669 41.3087C284.361 41.0847 283.913 40.9727 283.339 40.9727C282.835 40.9727 282.443 41.0567 282.163 41.2527C281.855 41.4347 281.701 41.6867 281.701 42.0087C281.701 42.3167 281.897 42.5827 282.317 42.7927C282.583 42.9187 283.087 43.0727 283.815 43.2687C284.683 43.4787 285.299 43.7027 285.677 43.9407C286.251 44.3047 286.545 44.7947 286.545 45.4247C286.545 46.9087 285.523 47.6648 283.479 47.6648C281.575 47.6648 280.539 46.8247 280.371 45.1587H281.463C281.547 45.7327 281.757 46.1387 282.065 46.3907C282.373 46.6147 282.835 46.7267 283.451 46.7267C284.739 46.7267 285.397 46.3067 285.397 45.4947C285.397 45.0887 285.159 44.7807 284.711 44.5567C284.473 44.4447 283.955 44.2907 283.171 44.0947C282.317 43.8847 281.715 43.6747 281.379 43.4507C280.819 43.1147 280.553 42.6527 280.553 42.0367C280.553 41.4207 280.819 40.9447 281.365 40.5807C281.869 40.2167 282.541 40.0347 283.353 40.0347ZM289.791 37.8927V40.2307H291.583V41.1687H289.791V45.7747C289.791 46.0407 289.833 46.2367 289.945 46.3487C290.043 46.4607 290.225 46.5307 290.477 46.5307H291.401V47.4688H290.309C289.721 47.4688 289.287 47.3147 289.035 47.0068C288.797 46.7267 288.685 46.3207 288.685 45.7747V41.1687H287.229V40.2307H288.685V38.3547L289.791 37.8927ZM296.014 40.0347C296.406 40.0347 296.742 40.0907 297.008 40.2027V41.3227C296.644 41.2107 296.28 41.1687 295.93 41.1687C295.37 41.1687 294.894 41.4067 294.516 41.9107C294.124 42.3867 293.942 42.9607 293.942 43.6327V47.4688H292.836V40.2307H293.942V41.4907C294.138 41.0707 294.39 40.7347 294.698 40.4967C295.076 40.1887 295.51 40.0347 296.014 40.0347ZM297.151 40.2307H298.369L300.581 45.9427L302.723 40.2307H303.955L299.993 50.2408H298.775L300.021 47.3007L297.151 40.2307Z" fill="#403B6D"/>
<rect opacity="0.4" x="129.179" y="128.081" width="100" height="56" rx="8" fill="#189BFE"/>
<rect x="125.179" y="124.081" width="100" height="56" rx="8" fill="white" stroke="#189BFE"/>
<path d="M164.477 147.085H165.807L169.741 157.081H168.495L167.431 154.281H162.839L161.775 157.081H160.543L164.477 147.085ZM163.203 153.315H167.067L165.177 148.317H165.121L163.203 153.315ZM169.814 149.843H171.046L173.118 155.681L175.19 149.843H176.422L173.678 157.081H172.544L169.814 149.843ZM180.544 149.647C180.936 149.647 181.272 149.703 181.538 149.815V150.935C181.174 150.823 180.81 150.781 180.46 150.781C179.9 150.781 179.424 151.019 179.046 151.523C178.654 151.999 178.472 152.573 178.472 153.245V157.081H177.366V149.843H178.472V151.103C178.668 150.683 178.92 150.347 179.228 150.109C179.606 149.801 180.04 149.647 180.544 149.647ZM185.713 149.647C186.791 149.647 187.659 150.011 188.303 150.767C188.919 151.481 189.227 152.377 189.227 153.469C189.227 154.547 188.919 155.443 188.317 156.143C187.659 156.899 186.791 157.277 185.713 157.277C184.621 157.277 183.767 156.899 183.123 156.143C182.507 155.443 182.199 154.547 182.199 153.469C182.199 152.377 182.507 151.481 183.123 150.767C183.767 150.011 184.621 149.647 185.713 149.647ZM185.713 150.585C184.943 150.585 184.341 150.879 183.921 151.467C183.529 151.999 183.347 152.657 183.347 153.469C183.347 154.267 183.529 154.925 183.921 155.457C184.341 156.045 184.943 156.339 185.713 156.339C186.469 156.339 187.071 156.045 187.519 155.457C187.897 154.925 188.093 154.253 188.093 153.469C188.093 152.657 187.897 151.999 187.519 151.467C187.071 150.879 186.469 150.585 185.713 150.585Z" fill="#403B6D"/>
<rect opacity="0.4" x="273.179" y="128.081" width="100" height="56" rx="8" fill="#189BFE"/>
<rect x="269.179" y="124.081" width="100" height="56" rx="8" fill="white" stroke="#189BFE"/>
<path d="M292.318 147.085H296.406C298.702 147.085 299.85 148.065 299.85 150.025C299.85 151.999 298.688 152.993 296.392 152.993H293.466V157.081H292.318V147.085ZM293.466 148.079V151.999H296.336C297.148 151.999 297.736 151.831 298.128 151.509C298.506 151.187 298.702 150.697 298.702 150.025C298.702 149.353 298.506 148.863 298.114 148.569C297.722 148.233 297.134 148.079 296.336 148.079H293.466ZM304.338 149.647C304.73 149.647 305.066 149.703 305.332 149.815V150.935C304.968 150.823 304.604 150.781 304.254 150.781C303.694 150.781 303.218 151.019 302.84 151.523C302.448 151.999 302.266 152.573 302.266 153.245V157.081H301.16V149.843H302.266V151.103C302.462 150.683 302.714 150.347 303.022 150.109C303.4 149.801 303.834 149.647 304.338 149.647ZM309.507 149.647C310.585 149.647 311.453 150.011 312.097 150.767C312.713 151.481 313.021 152.377 313.021 153.469C313.021 154.547 312.713 155.443 312.111 156.143C311.453 156.899 310.585 157.277 309.507 157.277C308.415 157.277 307.561 156.899 306.917 156.143C306.301 155.443 305.993 154.547 305.993 153.469C305.993 152.377 306.301 151.481 306.917 150.767C307.561 150.011 308.415 149.647 309.507 149.647ZM309.507 150.585C308.737 150.585 308.135 150.879 307.715 151.467C307.323 151.999 307.141 152.657 307.141 153.469C307.141 154.267 307.323 154.925 307.715 155.457C308.135 156.045 308.737 156.339 309.507 156.339C310.263 156.339 310.865 156.045 311.313 155.457C311.691 154.925 311.887 154.253 311.887 153.469C311.887 152.657 311.691 151.999 311.313 151.467C310.865 150.879 310.263 150.585 309.507 150.585ZM316.408 147.505V149.843H318.2V150.781H316.408V155.387C316.408 155.653 316.45 155.849 316.562 155.961C316.66 156.073 316.842 156.143 317.094 156.143H318.018V157.081H316.926C316.338 157.081 315.904 156.927 315.652 156.619C315.414 156.339 315.302 155.933 315.302 155.387V150.781H313.846V149.843H315.302V147.967L316.408 147.505ZM322.687 149.647C323.765 149.647 324.633 150.011 325.277 150.767C325.893 151.481 326.201 152.377 326.201 153.469C326.201 154.547 325.893 155.443 325.291 156.143C324.633 156.899 323.765 157.277 322.687 157.277C321.595 157.277 320.741 156.899 320.097 156.143C319.481 155.443 319.173 154.547 319.173 153.469C319.173 152.377 319.481 151.481 320.097 150.767C320.741 150.011 321.595 149.647 322.687 149.647ZM322.687 150.585C321.917 150.585 321.315 150.879 320.895 151.467C320.503 151.999 320.321 152.657 320.321 153.469C320.321 154.267 320.503 154.925 320.895 155.457C321.315 156.045 321.917 156.339 322.687 156.339C323.443 156.339 324.045 156.045 324.493 155.457C324.871 154.925 325.067 154.253 325.067 153.469C325.067 152.657 324.871 151.999 324.493 151.467C324.045 150.879 323.443 150.585 322.687 150.585ZM327.656 146.889H328.776V151.173C329.336 150.151 330.134 149.647 331.17 149.647C332.192 149.647 333.004 150.025 333.592 150.809C334.124 151.509 334.404 152.377 334.404 153.441C334.404 154.533 334.124 155.429 333.592 156.129C332.99 156.885 332.164 157.277 331.114 157.277C329.994 157.277 329.196 156.815 328.706 155.891V157.081H327.656V146.889ZM330.932 150.571C330.274 150.571 329.742 150.823 329.35 151.355C328.93 151.873 328.734 152.559 328.734 153.399V153.539C328.734 154.351 328.916 155.009 329.28 155.513C329.672 156.073 330.246 156.353 330.974 156.353C331.758 156.353 332.346 156.059 332.738 155.499C333.074 154.995 333.256 154.309 333.256 153.441C333.256 152.573 333.074 151.901 332.71 151.411C332.304 150.851 331.716 150.571 330.932 150.571ZM335.859 149.843H336.979V154.267C336.979 154.953 337.119 155.471 337.413 155.807C337.707 156.143 338.183 156.325 338.841 156.325C339.317 156.325 339.751 156.129 340.129 155.765C340.521 155.373 340.759 154.869 340.843 154.253V149.843H341.963V157.081H340.843V155.961C340.255 156.829 339.471 157.277 338.491 157.277C336.727 157.277 335.859 156.283 335.859 154.323V149.843ZM346.591 147.085H347.977V148.051H346.731C346.423 148.051 346.185 148.121 346.045 148.289C345.905 148.443 345.835 148.695 345.835 149.045V149.843H347.879V150.781H345.835V157.081H344.715V150.781H342.895V149.843H344.715V149.017C344.715 148.401 344.869 147.939 345.177 147.603C345.499 147.253 345.975 147.085 346.591 147.085Z" fill="#403B6D"/>
<path d="M407.98 44.8223C408.175 44.627 408.175 44.3105 407.98 44.1152L404.798 40.9332C404.602 40.738 404.286 40.738 404.09 40.9332C403.895 41.1285 403.895 41.4451 404.09 41.6403L406.919 44.4688L404.09 47.2972C403.895 47.4924 403.895 47.809 404.09 48.0043C404.286 48.1995 404.602 48.1995 404.798 48.0043L407.98 44.8223ZM327.626 44.9688H328.626V43.9688H327.626V44.9688ZM330.626 44.9688H332.626V43.9688H330.626V44.9688ZM334.626 44.9688H336.626V43.9688H334.626V44.9688ZM338.626 44.9688H340.626V43.9688H338.626V44.9688ZM342.626 44.9688H344.626V43.9688H342.626V44.9688ZM346.626 44.9688H348.626V43.9688H346.626V44.9688ZM350.626 44.9688H352.626V43.9688H350.626V44.9688ZM354.626 44.9688H356.626V43.9688H354.626V44.9688ZM358.626 44.9688H360.626V43.9688H358.626V44.9688ZM362.626 44.9688H364.626V43.9688H362.626V44.9688ZM366.626 44.9688H368.626V43.9688H366.626V44.9688ZM370.626 44.9688H372.626V43.9688H370.626V44.9688ZM374.626 44.9688H376.626V43.9688H374.626V44.9688ZM378.626 44.9688H380.626V43.9688H378.626V44.9688ZM382.626 44.9688H384.626V43.9688H382.626V44.9688ZM386.626 44.9688H388.626V43.9688H386.626V44.9688ZM390.626 44.9688H392.626V43.9688H390.626V44.9688ZM394.626 44.9688H396.626V43.9688H394.626V44.9688ZM398.626 44.9688H400.626V43.9688H398.626V44.9688ZM402.626 44.9688H404.626V43.9688H402.626V44.9688ZM406.626 44.9688H407.626V43.9688H406.626V44.9688Z" fill="#6776E8"/>
<path d="M171.591 44.8223C171.786 44.627 171.786 44.3105 171.591 44.1152L168.409 40.9332C168.214 40.738 167.897 40.738 167.702 40.9332C167.507 41.1285 167.507 41.4451 167.702 41.6403L170.53 44.4688L167.702 47.2972C167.507 47.4924 167.507 47.809 167.702 48.0043C167.897 48.1995 168.214 48.1995 168.409 48.0043L171.591 44.8223ZM91.2373 44.9688H92.2373V43.9688H91.2373V44.9688ZM94.2373 44.9688H96.2373V43.9688H94.2373V44.9688ZM98.2373 44.9688H100.237V43.9688H98.2373V44.9688ZM102.237 44.9688H104.237V43.9688H102.237V44.9688ZM106.237 44.9688H108.237V43.9688H106.237V44.9688ZM110.237 44.9688H112.237V43.9688H110.237V44.9688ZM114.237 44.9688H116.237V43.9688H114.237V44.9688ZM118.237 44.9688H120.237V43.9688H118.237V44.9688ZM122.237 44.9688H124.237V43.9688H122.237V44.9688ZM126.237 44.9688H128.237V43.9688H126.237V44.9688ZM130.237 44.9688H132.237V43.9688H130.237V44.9688ZM134.237 44.9688H136.237V43.9688H134.237V44.9688ZM138.237 44.9688H140.237V43.9688H138.237V44.9688ZM142.237 44.9688H144.237V43.9688H142.237V44.9688ZM146.237 44.9688H148.237V43.9688H146.237V44.9688ZM150.237 44.9688H152.237V43.9688H150.237V44.9688ZM154.237 44.9688H156.237V43.9688H154.237V44.9688ZM158.237 44.9688H160.237V43.9688H158.237V44.9688ZM162.237 44.9688H164.237V43.9688H162.237V44.9688ZM166.237 44.9688H168.237V43.9688H166.237V44.9688ZM170.237 44.9688H171.237V43.9688H170.237V44.9688Z" fill="#6776E8"/>
<path d="M177.828 221.441C178.023 221.637 178.34 221.637 178.535 221.441L181.717 218.259C181.912 218.064 181.912 217.748 181.717 217.552C181.522 217.357 181.205 217.357 181.01 217.552L178.182 220.381L175.353 217.552C175.158 217.357 174.841 217.357 174.646 217.552C174.451 217.748 174.451 218.064 174.646 218.259L177.828 221.441ZM177.682 189.088V190.088H178.682V189.088H177.682ZM177.682 192.088V194.088H178.682V192.088H177.682ZM177.682 196.088V198.088H178.682V196.088H177.682ZM177.682 200.088V202.088H178.682V200.088H177.682ZM177.682 204.088V206.088H178.682V204.088H177.682ZM177.682 208.088V210.088H178.682V208.088H177.682ZM177.682 212.088V214.088H178.682V212.088H177.682ZM177.682 216.088V218.088H178.682V216.088H177.682ZM177.682 220.088V221.088H178.682V220.088H177.682Z" fill="#00C6CD"/>
<path d="M320.828 221.441C321.023 221.637 321.34 221.637 321.535 221.441L324.717 218.259C324.912 218.064 324.912 217.748 324.717 217.552C324.522 217.357 324.205 217.357 324.01 217.552L321.182 220.381L318.353 217.552C318.158 217.357 317.841 217.357 317.646 217.552C317.451 217.748 317.451 218.064 317.646 218.259L320.828 221.441ZM320.682 189.088V190.088H321.682V189.088H320.682ZM320.682 192.088V194.088H321.682V192.088H320.682ZM320.682 196.088V198.088H321.682V196.088H320.682ZM320.682 200.088V202.088H321.682V200.088H320.682ZM320.682 204.088V206.088H321.682V204.088H320.682ZM320.682 208.088V210.088H321.682V208.088H320.682ZM320.682 212.088V214.088H321.682V212.088H320.682ZM320.682 216.088V218.088H321.682V216.088H320.682ZM320.682 220.088V221.088H321.682V220.088H320.682Z" fill="#00C6CD"/>
<path fill-rule="evenodd" clip-rule="evenodd" d="M137.182 274.224C137.182 277.306 139.196 280.016 142.189 280.753C149.292 282.504 163.013 285.348 177.182 285.348C191.35 285.348 205.071 282.504 212.174 280.753C215.167 280.016 217.182 277.306 217.182 274.224V231.679V231.598H217.179C217.181 231.625 217.182 231.652 217.182 231.679C217.182 235.269 199.273 238.179 177.182 238.179C155.09 238.179 137.182 235.269 137.182 231.679C137.182 231.652 137.183 231.625 137.185 231.598H137.182V231.679V274.224Z" fill="white"/>
<path d="M142.189 280.753L142.309 280.268L142.309 280.268L142.189 280.753ZM212.174 280.753L212.294 281.239L212.294 281.239L212.174 280.753ZM217.182 231.598H217.682V231.098H217.182V231.598ZM217.179 231.598V231.098H216.639L216.68 231.635L217.179 231.598ZM137.185 231.598L137.683 231.635L137.724 231.098H137.185V231.598ZM137.182 231.598V231.098H136.682V231.598H137.182ZM142.309 280.268C139.551 279.588 137.682 277.089 137.682 274.224H136.682C136.682 277.524 138.841 280.443 142.069 281.239L142.309 280.268ZM177.182 284.848C163.072 284.848 149.395 282.014 142.309 280.268L142.069 281.239C149.189 282.993 162.955 285.848 177.182 285.848V284.848ZM212.055 280.268C204.968 282.014 191.291 284.848 177.182 284.848V285.848C191.408 285.848 205.174 282.993 212.294 281.239L212.055 280.268ZM216.682 274.224C216.682 277.089 214.812 279.588 212.055 280.268L212.294 281.239C215.522 280.443 217.682 277.524 217.682 274.224H216.682ZM216.682 231.679V274.224H217.682V231.679H216.682ZM216.682 231.598V231.679H217.682V231.598H216.682ZM217.179 232.098H217.182V231.098H217.179V232.098ZM216.68 231.635C216.681 231.65 216.682 231.665 216.682 231.679H217.682C217.682 231.639 217.68 231.6 217.677 231.56L216.68 231.635ZM216.682 231.679C216.682 231.904 216.541 232.214 216.058 232.597C215.582 232.975 214.85 233.362 213.859 233.742C211.882 234.502 208.992 235.196 205.386 235.782C198.181 236.952 188.209 237.679 177.182 237.679V238.679C188.246 238.679 198.274 237.951 205.546 236.769C209.178 236.179 212.146 235.472 214.218 234.676C215.251 234.279 216.09 233.849 216.68 233.381C217.262 232.918 217.682 232.352 217.682 231.679H216.682ZM177.182 237.679C166.154 237.679 156.182 236.952 148.978 235.782C145.371 235.196 142.481 234.502 140.504 233.742C139.513 233.362 138.781 232.975 138.305 232.597C137.822 232.214 137.682 231.904 137.682 231.679H136.682C136.682 232.352 137.101 232.918 137.683 233.381C138.273 233.849 139.113 234.279 140.146 234.676C142.217 235.472 145.185 236.179 148.817 236.769C156.09 237.951 166.118 238.679 177.182 238.679V237.679ZM137.682 231.679C137.682 231.664 137.682 231.65 137.683 231.635L136.686 231.56C136.683 231.6 136.682 231.639 136.682 231.679H137.682ZM137.182 232.098H137.185V231.098H137.182V232.098ZM137.682 231.679V231.598H136.682V231.679H137.682ZM137.682 274.224V231.679H136.682V274.224H137.682Z" fill="#00C6CD"/>
<ellipse cx="177.182" cy="231.598" rx="6" ry="40" transform="rotate(-90 177.182 231.598)" fill="white" stroke="#00C6CD"/>
<path d="M166.752 246.477H168.082L172.016 256.473H170.77L169.706 253.673H165.114L164.05 256.473H162.818L166.752 246.477ZM165.478 252.707H169.342L167.452 247.709H167.396L165.478 252.707ZM172.089 249.235H173.321L175.393 255.073L177.465 249.235H178.697L175.953 256.473H174.819L172.089 249.235ZM182.819 249.039C183.211 249.039 183.547 249.095 183.813 249.207V250.327C183.449 250.215 183.085 250.173 182.735 250.173C182.175 250.173 181.699 250.411 181.321 250.915C180.929 251.391 180.747 251.965 180.747 252.637V256.473H179.641V249.235H180.747V250.495C180.943 250.075 181.195 249.739 181.503 249.501C181.881 249.193 182.315 249.039 182.819 249.039ZM187.988 249.039C189.066 249.039 189.934 249.403 190.578 250.159C191.194 250.873 191.502 251.769 191.502 252.861C191.502 253.939 191.194 254.835 190.592 255.535C189.934 256.291 189.066 256.669 187.988 256.669C186.896 256.669 186.042 256.291 185.398 255.535C184.782 254.835 184.474 253.939 184.474 252.861C184.474 251.769 184.782 250.873 185.398 250.159C186.042 249.403 186.896 249.039 187.988 249.039ZM187.988 249.977C187.218 249.977 186.616 250.271 186.196 250.859C185.804 251.391 185.622 252.049 185.622 252.861C185.622 253.659 185.804 254.317 186.196 254.849C186.616 255.437 187.218 255.731 187.988 255.731C188.744 255.731 189.346 255.437 189.794 254.849C190.172 254.317 190.368 253.645 190.368 252.861C190.368 252.049 190.172 251.391 189.794 250.859C189.346 250.271 188.744 249.977 187.988 249.977ZM152.366 264.281C153.486 264.281 154.382 264.533 155.026 265.051C155.698 265.583 156.076 266.381 156.174 267.431H155.04C154.914 266.703 154.634 266.171 154.2 265.821C153.752 265.457 153.122 265.289 152.31 265.289C151.568 265.289 150.994 265.401 150.574 265.653C150.098 265.933 149.86 266.353 149.86 266.927C149.86 267.431 150.14 267.837 150.714 268.145C150.966 268.285 151.582 268.495 152.548 268.775C153.864 269.167 154.732 269.489 155.152 269.741C155.978 270.245 156.398 270.945 156.398 271.855C156.398 272.723 156.048 273.423 155.348 273.927C154.648 274.417 153.71 274.669 152.52 274.669C151.344 274.669 150.42 274.417 149.748 273.913C148.964 273.311 148.53 272.401 148.446 271.169H149.58C149.678 272.037 149.986 272.681 150.49 273.087C150.952 273.451 151.624 273.647 152.52 273.647C153.332 273.647 154.004 273.493 154.508 273.185C155.012 272.877 155.264 272.457 155.264 271.925C155.264 271.295 154.928 270.805 154.27 270.455C153.99 270.287 153.276 270.049 152.156 269.727C150.952 269.363 150.182 269.083 149.86 268.915C149.09 268.467 148.712 267.823 148.712 266.983C148.712 266.115 149.076 265.429 149.818 264.953C150.476 264.505 151.33 264.281 152.366 264.281ZM160.833 267.039C161.729 267.039 162.443 267.249 162.989 267.669C163.549 268.103 163.885 268.761 164.011 269.643H162.905C162.807 269.083 162.583 268.663 162.233 268.383C161.869 268.103 161.407 267.977 160.833 267.977C160.133 267.977 159.573 268.243 159.167 268.775C158.775 269.293 158.579 269.993 158.579 270.875C158.579 271.757 158.761 272.457 159.153 272.961C159.531 273.465 160.091 273.731 160.819 273.731C162.051 273.731 162.765 273.101 162.933 271.855H164.053C163.885 272.779 163.535 273.493 162.975 273.969C162.429 274.431 161.715 274.669 160.819 274.669C159.727 274.669 158.887 274.305 158.285 273.577C157.711 272.891 157.431 271.995 157.431 270.889C157.431 269.783 157.711 268.887 158.285 268.187C158.901 267.417 159.755 267.039 160.833 267.039ZM165.368 264.281H166.488V268.425C166.74 267.963 167.076 267.613 167.496 267.375C167.888 267.151 168.322 267.039 168.812 267.039C169.652 267.039 170.31 267.277 170.758 267.781C171.206 268.271 171.43 268.985 171.43 269.909V274.473H170.31V270.077C170.31 269.405 170.142 268.887 169.834 268.523C169.498 268.159 169.036 267.977 168.434 267.977C167.874 267.977 167.412 268.201 167.048 268.649C166.67 269.097 166.488 269.671 166.488 270.343V274.473H165.368V264.281ZM176.129 267.039C177.291 267.039 178.173 267.431 178.761 268.215C179.293 268.915 179.573 269.909 179.601 271.169H173.889C173.945 271.981 174.155 272.611 174.547 273.059C174.939 273.507 175.485 273.731 176.171 273.731C176.759 273.731 177.249 273.577 177.613 273.283C177.921 273.031 178.159 272.653 178.341 272.149H179.461C179.293 272.849 178.971 273.409 178.481 273.857C177.879 274.389 177.109 274.669 176.171 274.669C175.135 274.669 174.295 274.319 173.679 273.647C173.035 272.947 172.727 272.023 172.727 270.847C172.727 269.783 173.021 268.887 173.637 268.173C174.253 267.417 175.079 267.039 176.129 267.039ZM176.157 267.977C175.513 267.977 174.995 268.187 174.603 268.607C174.211 269.027 173.987 269.587 173.917 270.301H178.439C178.299 268.747 177.529 267.977 176.157 267.977ZM184.076 267.039C185.182 267.039 185.938 267.487 186.344 268.411C186.624 267.935 186.96 267.585 187.352 267.375C187.702 267.151 188.122 267.039 188.626 267.039C189.382 267.039 189.984 267.277 190.46 267.753C190.908 268.243 191.146 268.901 191.146 269.727V274.473H190.026V269.909C190.026 269.265 189.886 268.789 189.62 268.481C189.34 268.145 188.892 267.991 188.276 267.991C187.8 267.991 187.394 268.159 187.086 268.523C186.75 268.887 186.596 269.349 186.596 269.937V274.473H185.476V269.909C185.476 268.621 184.916 267.991 183.81 267.991C183.292 267.991 182.872 268.187 182.536 268.607C182.2 268.999 182.032 269.489 182.032 270.063V274.473H180.912V267.235H182.032V268.201C182.578 267.417 183.264 267.039 184.076 267.039ZM196.039 267.039C197.075 267.039 197.831 267.305 198.335 267.851C198.755 268.327 198.979 268.985 198.979 269.825V274.473H197.929V273.255C197.649 273.647 197.271 273.969 196.823 274.221C196.291 274.515 195.689 274.669 195.017 274.669C194.289 274.669 193.715 274.487 193.281 274.123C192.833 273.745 192.609 273.255 192.609 272.667C192.609 271.841 192.931 271.225 193.603 270.805C194.191 270.413 195.031 270.203 196.123 270.189L197.859 270.161V269.783C197.859 268.565 197.229 267.963 195.969 267.963C195.437 267.963 195.003 268.061 194.667 268.285C194.289 268.509 194.051 268.859 193.939 269.321L192.833 269.237C192.987 268.481 193.365 267.907 193.953 267.543C194.485 267.207 195.171 267.039 196.039 267.039ZM197.859 271.001L196.193 271.029C194.569 271.057 193.757 271.589 193.757 272.639C193.757 272.975 193.883 273.241 194.163 273.465C194.443 273.675 194.807 273.787 195.255 273.787C195.941 273.787 196.543 273.563 197.075 273.115C197.593 272.681 197.859 272.177 197.859 271.617V271.001ZM203.271 267.039C205.063 267.039 206.043 267.781 206.239 269.293H205.147C205.049 268.845 204.867 268.509 204.587 268.313C204.279 268.089 203.831 267.977 203.257 267.977C202.753 267.977 202.361 268.061 202.081 268.257C201.773 268.439 201.619 268.691 201.619 269.013C201.619 269.321 201.815 269.587 202.235 269.797C202.501 269.923 203.005 270.077 203.733 270.273C204.601 270.483 205.217 270.707 205.595 270.945C206.169 271.309 206.463 271.799 206.463 272.429C206.463 273.913 205.441 274.669 203.397 274.669C201.493 274.669 200.457 273.829 200.289 272.163H201.381C201.465 272.737 201.675 273.143 201.983 273.395C202.291 273.619 202.753 273.731 203.369 273.731C204.657 273.731 205.315 273.311 205.315 272.499C205.315 272.093 205.077 271.785 204.629 271.561C204.391 271.449 203.873 271.295 203.089 271.099C202.235 270.889 201.633 270.679 201.297 270.455C200.737 270.119 200.471 269.657 200.471 269.041C200.471 268.425 200.737 267.949 201.283 267.585C201.787 267.221 202.459 267.039 203.271 267.039Z" fill="black"/>
<path fill-rule="evenodd" clip-rule="evenodd" d="M281.182 274.224C281.182 277.306 283.196 280.016 286.189 280.753C293.292 282.504 307.013 285.348 321.182 285.348C335.35 285.348 349.071 282.504 356.174 280.753C359.167 280.016 361.182 277.306 361.182 274.224V231.679V231.598H361.179C361.181 231.625 361.182 231.652 361.182 231.679C361.182 235.269 343.273 238.179 321.182 238.179C299.09 238.179 281.182 235.269 281.182 231.679C281.182 231.652 281.183 231.625 281.185 231.598H281.182V231.679V274.224Z" fill="white"/>
<path d="M286.189 280.753L286.309 280.268L286.309 280.268L286.189 280.753ZM356.174 280.753L356.294 281.239L356.294 281.239L356.174 280.753ZM361.182 231.598H361.682V231.098H361.182V231.598ZM361.179 231.598V231.098H360.639L360.68 231.635L361.179 231.598ZM281.185 231.598L281.683 231.635L281.724 231.098H281.185V231.598ZM281.182 231.598V231.098H280.682V231.598H281.182ZM286.309 280.268C283.551 279.588 281.682 277.089 281.682 274.224H280.682C280.682 277.524 282.841 280.443 286.069 281.239L286.309 280.268ZM321.182 284.848C307.072 284.848 293.395 282.014 286.309 280.268L286.069 281.239C293.189 282.993 306.955 285.848 321.182 285.848V284.848ZM356.055 280.268C348.968 282.014 335.291 284.848 321.182 284.848V285.848C335.408 285.848 349.174 282.993 356.294 281.239L356.055 280.268ZM360.682 274.224C360.682 277.089 358.812 279.588 356.055 280.268L356.294 281.239C359.522 280.443 361.682 277.524 361.682 274.224H360.682ZM360.682 231.679V274.224H361.682V231.679H360.682ZM360.682 231.598V231.679H361.682V231.598H360.682ZM361.179 232.098H361.182V231.098H361.179V232.098ZM360.68 231.635C360.681 231.65 360.682 231.665 360.682 231.679H361.682C361.682 231.639 361.68 231.6 361.677 231.56L360.68 231.635ZM360.682 231.679C360.682 231.904 360.541 232.214 360.058 232.597C359.582 232.975 358.85 233.362 357.859 233.742C355.882 234.502 352.992 235.196 349.386 235.782C342.181 236.952 332.209 237.679 321.182 237.679V238.679C332.246 238.679 342.274 237.951 349.546 236.769C353.178 236.179 356.146 235.472 358.218 234.676C359.251 234.279 360.09 233.849 360.68 233.381C361.262 232.918 361.682 232.352 361.682 231.679H360.682ZM321.182 237.679C310.154 237.679 300.182 236.952 292.978 235.782C289.371 235.196 286.481 234.502 284.504 233.742C283.513 233.362 282.781 232.975 282.305 232.597C281.822 232.214 281.682 231.904 281.682 231.679H280.682C280.682 232.352 281.101 232.918 281.683 233.381C282.273 233.849 283.113 234.279 284.146 234.676C286.217 235.472 289.185 236.179 292.817 236.769C300.09 237.951 310.118 238.679 321.182 238.679V237.679ZM281.682 231.679C281.682 231.664 281.682 231.65 281.683 231.635L280.686 231.56C280.683 231.6 280.682 231.639 280.682 231.679H281.682ZM281.182 232.098H281.185V231.098H281.182V232.098ZM281.682 231.679V231.598H280.682V231.679H281.682ZM281.682 274.224V231.679H280.682V274.224H281.682Z" fill="#00C6CD"/>
<ellipse cx="321.182" cy="231.598" rx="6" ry="40" transform="rotate(-90 321.182 231.598)" fill="white" stroke="#00C6CD"/>
<path d="M294.092 246.477H298.18C300.476 246.477 301.624 247.457 301.624 249.417C301.624 251.391 300.462 252.385 298.166 252.385H295.24V256.473H294.092V246.477ZM295.24 247.471V251.391H298.11C298.922 251.391 299.51 251.223 299.902 250.901C300.28 250.579 300.476 250.089 300.476 249.417C300.476 248.745 300.28 248.255 299.888 247.961C299.496 247.625 298.908 247.471 298.11 247.471H295.24ZM306.113 249.039C306.505 249.039 306.841 249.095 307.107 249.207V250.327C306.743 250.215 306.379 250.173 306.029 250.173C305.469 250.173 304.993 250.411 304.615 250.915C304.223 251.391 304.041 251.965 304.041 252.637V256.473H302.935V249.235H304.041V250.495C304.237 250.075 304.489 249.739 304.797 249.501C305.175 249.193 305.609 249.039 306.113 249.039ZM311.282 249.039C312.36 249.039 313.228 249.403 313.872 250.159C314.488 250.873 314.796 251.769 314.796 252.861C314.796 253.939 314.488 254.835 313.886 255.535C313.228 256.291 312.36 256.669 311.282 256.669C310.19 256.669 309.336 256.291 308.692 255.535C308.076 254.835 307.768 253.939 307.768 252.861C307.768 251.769 308.076 250.873 308.692 250.159C309.336 249.403 310.19 249.039 311.282 249.039ZM311.282 249.977C310.512 249.977 309.91 250.271 309.49 250.859C309.098 251.391 308.916 252.049 308.916 252.861C308.916 253.659 309.098 254.317 309.49 254.849C309.91 255.437 310.512 255.731 311.282 255.731C312.038 255.731 312.64 255.437 313.088 254.849C313.466 254.317 313.662 253.645 313.662 252.861C313.662 252.049 313.466 251.391 313.088 250.859C312.64 250.271 312.038 249.977 311.282 249.977ZM318.183 246.897V249.235H319.975V250.173H318.183V254.779C318.183 255.045 318.225 255.241 318.337 255.353C318.435 255.465 318.617 255.535 318.869 255.535H319.793V256.473H318.701C318.113 256.473 317.679 256.319 317.427 256.011C317.189 255.731 317.077 255.325 317.077 254.779V250.173H315.621V249.235H317.077V247.359L318.183 246.897ZM324.462 249.039C325.54 249.039 326.408 249.403 327.052 250.159C327.668 250.873 327.976 251.769 327.976 252.861C327.976 253.939 327.668 254.835 327.066 255.535C326.408 256.291 325.54 256.669 324.462 256.669C323.37 256.669 322.516 256.291 321.872 255.535C321.256 254.835 320.948 253.939 320.948 252.861C320.948 251.769 321.256 250.873 321.872 250.159C322.516 249.403 323.37 249.039 324.462 249.039ZM324.462 249.977C323.692 249.977 323.09 250.271 322.67 250.859C322.278 251.391 322.096 252.049 322.096 252.861C322.096 253.659 322.278 254.317 322.67 254.849C323.09 255.437 323.692 255.731 324.462 255.731C325.218 255.731 325.82 255.437 326.268 254.849C326.646 254.317 326.842 253.645 326.842 252.861C326.842 252.049 326.646 251.391 326.268 250.859C325.82 250.271 325.218 249.977 324.462 249.977ZM329.431 246.281H330.551V250.565C331.111 249.543 331.909 249.039 332.945 249.039C333.967 249.039 334.779 249.417 335.367 250.201C335.899 250.901 336.179 251.769 336.179 252.833C336.179 253.925 335.899 254.821 335.367 255.521C334.765 256.277 333.939 256.669 332.889 256.669C331.769 256.669 330.971 256.207 330.481 255.283V256.473H329.431V246.281ZM332.707 249.963C332.049 249.963 331.517 250.215 331.125 250.747C330.705 251.265 330.509 251.951 330.509 252.791V252.931C330.509 253.743 330.691 254.401 331.055 254.905C331.447 255.465 332.021 255.745 332.749 255.745C333.533 255.745 334.121 255.451 334.513 254.891C334.849 254.387 335.031 253.701 335.031 252.833C335.031 251.965 334.849 251.293 334.485 250.803C334.079 250.243 333.491 249.963 332.707 249.963ZM337.634 249.235H338.754V253.659C338.754 254.345 338.894 254.863 339.188 255.199C339.482 255.535 339.958 255.717 340.616 255.717C341.092 255.717 341.526 255.521 341.904 255.157C342.296 254.765 342.534 254.261 342.618 253.645V249.235H343.738V256.473H342.618V255.353C342.03 256.221 341.246 256.669 340.266 256.669C338.502 256.669 337.634 255.675 337.634 253.715V249.235ZM348.366 246.477H349.752V247.443H348.506C348.198 247.443 347.96 247.513 347.82 247.681C347.68 247.835 347.61 248.087 347.61 248.437V249.235H349.654V250.173H347.61V256.473H346.49V250.173H344.67V249.235H346.49V248.409C346.49 247.793 346.644 247.331 346.952 246.995C347.274 246.645 347.75 246.477 348.366 246.477ZM296.366 264.281C297.486 264.281 298.382 264.533 299.026 265.051C299.698 265.583 300.076 266.381 300.174 267.431H299.04C298.914 266.703 298.634 266.171 298.2 265.821C297.752 265.457 297.122 265.289 296.31 265.289C295.568 265.289 294.994 265.401 294.574 265.653C294.098 265.933 293.86 266.353 293.86 266.927C293.86 267.431 294.14 267.837 294.714 268.145C294.966 268.285 295.582 268.495 296.548 268.775C297.864 269.167 298.732 269.489 299.152 269.741C299.978 270.245 300.398 270.945 300.398 271.855C300.398 272.723 300.048 273.423 299.348 273.927C298.648 274.417 297.71 274.669 296.52 274.669C295.344 274.669 294.42 274.417 293.748 273.913C292.964 273.311 292.53 272.401 292.446 271.169H293.58C293.678 272.037 293.986 272.681 294.49 273.087C294.952 273.451 295.624 273.647 296.52 273.647C297.332 273.647 298.004 273.493 298.508 273.185C299.012 272.877 299.264 272.457 299.264 271.925C299.264 271.295 298.928 270.805 298.27 270.455C297.99 270.287 297.276 270.049 296.156 269.727C294.952 269.363 294.182 269.083 293.86 268.915C293.09 268.467 292.712 267.823 292.712 266.983C292.712 266.115 293.076 265.429 293.818 264.953C294.476 264.505 295.33 264.281 296.366 264.281ZM304.833 267.039C305.729 267.039 306.443 267.249 306.989 267.669C307.549 268.103 307.885 268.761 308.011 269.643H306.905C306.807 269.083 306.583 268.663 306.233 268.383C305.869 268.103 305.407 267.977 304.833 267.977C304.133 267.977 303.573 268.243 303.167 268.775C302.775 269.293 302.579 269.993 302.579 270.875C302.579 271.757 302.761 272.457 303.153 272.961C303.531 273.465 304.091 273.731 304.819 273.731C306.051 273.731 306.765 273.101 306.933 271.855H308.053C307.885 272.779 307.535 273.493 306.975 273.969C306.429 274.431 305.715 274.669 304.819 274.669C303.727 274.669 302.887 274.305 302.285 273.577C301.711 272.891 301.431 271.995 301.431 270.889C301.431 269.783 301.711 268.887 302.285 268.187C302.901 267.417 303.755 267.039 304.833 267.039ZM309.368 264.281H310.488V268.425C310.74 267.963 311.076 267.613 311.496 267.375C311.888 267.151 312.322 267.039 312.812 267.039C313.652 267.039 314.31 267.277 314.758 267.781C315.206 268.271 315.43 268.985 315.43 269.909V274.473H314.31V270.077C314.31 269.405 314.142 268.887 313.834 268.523C313.498 268.159 313.036 267.977 312.434 267.977C311.874 267.977 311.412 268.201 311.048 268.649C310.67 269.097 310.488 269.671 310.488 270.343V274.473H309.368V264.281ZM320.129 267.039C321.291 267.039 322.173 267.431 322.761 268.215C323.293 268.915 323.573 269.909 323.601 271.169H317.889C317.945 271.981 318.155 272.611 318.547 273.059C318.939 273.507 319.485 273.731 320.171 273.731C320.759 273.731 321.249 273.577 321.613 273.283C321.921 273.031 322.159 272.653 322.341 272.149H323.461C323.293 272.849 322.971 273.409 322.481 273.857C321.879 274.389 321.109 274.669 320.171 274.669C319.135 274.669 318.295 274.319 317.679 273.647C317.035 272.947 316.727 272.023 316.727 270.847C316.727 269.783 317.021 268.887 317.637 268.173C318.253 267.417 319.079 267.039 320.129 267.039ZM320.157 267.977C319.513 267.977 318.995 268.187 318.603 268.607C318.211 269.027 317.987 269.587 317.917 270.301H322.439C322.299 268.747 321.529 267.977 320.157 267.977ZM328.076 267.039C329.182 267.039 329.938 267.487 330.344 268.411C330.624 267.935 330.96 267.585 331.352 267.375C331.702 267.151 332.122 267.039 332.626 267.039C333.382 267.039 333.984 267.277 334.46 267.753C334.908 268.243 335.146 268.901 335.146 269.727V274.473H334.026V269.909C334.026 269.265 333.886 268.789 333.62 268.481C333.34 268.145 332.892 267.991 332.276 267.991C331.8 267.991 331.394 268.159 331.086 268.523C330.75 268.887 330.596 269.349 330.596 269.937V274.473H329.476V269.909C329.476 268.621 328.916 267.991 327.81 267.991C327.292 267.991 326.872 268.187 326.536 268.607C326.2 268.999 326.032 269.489 326.032 270.063V274.473H324.912V267.235H326.032V268.201C326.578 267.417 327.264 267.039 328.076 267.039ZM340.039 267.039C341.075 267.039 341.831 267.305 342.335 267.851C342.755 268.327 342.979 268.985 342.979 269.825V274.473H341.929V273.255C341.649 273.647 341.271 273.969 340.823 274.221C340.291 274.515 339.689 274.669 339.017 274.669C338.289 274.669 337.715 274.487 337.281 274.123C336.833 273.745 336.609 273.255 336.609 272.667C336.609 271.841 336.931 271.225 337.603 270.805C338.191 270.413 339.031 270.203 340.123 270.189L341.859 270.161V269.783C341.859 268.565 341.229 267.963 339.969 267.963C339.437 267.963 339.003 268.061 338.667 268.285C338.289 268.509 338.051 268.859 337.939 269.321L336.833 269.237C336.987 268.481 337.365 267.907 337.953 267.543C338.485 267.207 339.171 267.039 340.039 267.039ZM341.859 271.001L340.193 271.029C338.569 271.057 337.757 271.589 337.757 272.639C337.757 272.975 337.883 273.241 338.163 273.465C338.443 273.675 338.807 273.787 339.255 273.787C339.941 273.787 340.543 273.563 341.075 273.115C341.593 272.681 341.859 272.177 341.859 271.617V271.001ZM347.271 267.039C349.063 267.039 350.043 267.781 350.239 269.293H349.147C349.049 268.845 348.867 268.509 348.587 268.313C348.279 268.089 347.831 267.977 347.257 267.977C346.753 267.977 346.361 268.061 346.081 268.257C345.773 268.439 345.619 268.691 345.619 269.013C345.619 269.321 345.815 269.587 346.235 269.797C346.501 269.923 347.005 270.077 347.733 270.273C348.601 270.483 349.217 270.707 349.595 270.945C350.169 271.309 350.463 271.799 350.463 272.429C350.463 273.913 349.441 274.669 347.397 274.669C345.493 274.669 344.457 273.829 344.289 272.163H345.381C345.465 272.737 345.675 273.143 345.983 273.395C346.291 273.619 346.753 273.731 347.369 273.731C348.657 273.731 349.315 273.311 349.315 272.499C349.315 272.093 349.077 271.785 348.629 271.561C348.391 271.449 347.873 271.295 347.089 271.099C346.235 270.889 345.633 270.679 345.297 270.455C344.737 270.119 344.471 269.657 344.471 269.041C344.471 268.425 344.737 267.949 345.283 267.585C345.787 267.221 346.459 267.039 347.271 267.039Z" fill="black"/>
<path d="M336.068 27.6449C337.34 27.6449 338.36 28.0649 339.104 28.9289C339.8 29.7449 340.16 30.8009 340.16 32.1089C340.16 33.4049 339.8 34.4489 339.104 35.2649C338.36 36.1169 337.34 36.5489 336.056 36.5489C334.772 36.5489 333.764 36.1169 333.02 35.2649C332.312 34.4489 331.964 33.3929 331.964 32.1089C331.964 30.8129 332.312 29.7569 333.02 28.9409C333.764 28.0769 334.772 27.6449 336.068 27.6449ZM336.068 28.5209C335.084 28.5209 334.304 28.8569 333.74 29.5409C333.212 30.1889 332.948 31.0409 332.948 32.1089C332.948 33.1649 333.212 34.0169 333.74 34.6649C334.292 35.3369 335.072 35.6729 336.056 35.6729C337.04 35.6729 337.82 35.3369 338.372 34.6889C338.9 34.0409 339.176 33.1889 339.176 32.1089C339.176 31.0169 338.9 30.1529 338.372 29.5049C337.82 28.8449 337.052 28.5209 336.068 28.5209ZM341.403 30.1769H342.363V33.9689C342.363 34.5569 342.483 35.0009 342.735 35.2889C342.987 35.5769 343.395 35.7329 343.959 35.7329C344.367 35.7329 344.739 35.5649 345.063 35.2529C345.399 34.9169 345.603 34.4849 345.675 33.9569V30.1769H346.635V36.3809H345.675V35.4209C345.171 36.1649 344.499 36.5489 343.659 36.5489C342.147 36.5489 341.403 35.6969 341.403 34.0169V30.1769ZM349.774 28.1729V30.1769H351.31V30.9809H349.774V34.9289C349.774 35.1569 349.81 35.3249 349.906 35.4209C349.99 35.5169 350.146 35.5769 350.362 35.5769H351.154V36.3809H350.218C349.714 36.3809 349.342 36.2489 349.126 35.9849C348.922 35.7449 348.826 35.3969 348.826 34.9289V30.9809H347.578V30.1769H348.826V28.5689L349.774 28.1729ZM355.348 30.0089C356.236 30.0089 356.944 30.3329 357.46 31.0049C357.928 31.6049 358.168 32.3609 358.168 33.2969C358.168 34.2089 357.928 34.9649 357.472 35.5649C356.968 36.2129 356.284 36.5489 355.396 36.5489C354.508 36.5489 353.824 36.1169 353.344 35.2529V38.7569H352.384V30.1769H353.284V31.1969C353.728 30.4049 354.412 30.0089 355.348 30.0089ZM355.228 30.8009C354.604 30.8009 354.112 31.0409 353.776 31.5329C353.464 31.9649 353.308 32.5409 353.308 33.2369V33.3569C353.308 34.0769 353.476 34.6529 353.836 35.0969C354.172 35.5289 354.616 35.7569 355.192 35.7569C355.864 35.7569 356.368 35.5169 356.716 35.0609C357.028 34.6289 357.184 34.0409 357.184 33.2969C357.184 32.5649 357.028 31.9769 356.74 31.5449C356.392 31.0409 355.888 30.8009 355.228 30.8009ZM359.415 30.1769H360.375V33.9689C360.375 34.5569 360.495 35.0009 360.747 35.2889C360.999 35.5769 361.407 35.7329 361.971 35.7329C362.379 35.7329 362.751 35.5649 363.075 35.2529C363.411 34.9169 363.615 34.4849 363.687 33.9569V30.1769H364.647V36.3809H363.687V35.4209C363.183 36.1649 362.511 36.5489 361.671 36.5489C360.159 36.5489 359.415 35.6969 359.415 34.0169V30.1769ZM367.786 28.1729V30.1769H369.322V30.9809H367.786V34.9289C367.786 35.1569 367.822 35.3249 367.918 35.4209C368.002 35.5169 368.158 35.5769 368.374 35.5769H369.166V36.3809H368.23C367.726 36.3809 367.354 36.2489 367.138 35.9849C366.934 35.7449 366.838 35.3969 366.838 34.9289V30.9809H365.59V30.1769H366.838V28.5689L367.786 28.1729ZM374.511 27.8129H377.583C378.939 27.8129 379.959 28.1969 380.655 28.9889C381.291 29.7089 381.615 30.7529 381.615 32.0969C381.615 33.4169 381.267 34.4609 380.583 35.2049C379.863 35.9849 378.831 36.3809 377.487 36.3809H374.511V27.8129ZM375.495 28.6649V35.5289H377.319C378.435 35.5289 379.275 35.2289 379.839 34.6409C380.367 34.0649 380.643 33.2129 380.643 32.0969C380.643 30.9449 380.391 30.0929 379.899 29.5409C379.371 28.9529 378.555 28.6649 377.427 28.6649H375.495ZM385.564 30.0089C386.452 30.0089 387.1 30.2369 387.532 30.7049C387.892 31.1129 388.084 31.6769 388.084 32.3969V36.3809H387.184V35.3369C386.944 35.6729 386.62 35.9489 386.236 36.1649C385.78 36.4169 385.264 36.5489 384.688 36.5489C384.064 36.5489 383.572 36.3929 383.2 36.0809C382.816 35.7569 382.624 35.3369 382.624 34.8329C382.624 34.1249 382.9 33.5969 383.476 33.2369C383.98 32.9009 384.7 32.7209 385.636 32.7089L387.124 32.6849V32.3609C387.124 31.3169 386.584 30.8009 385.504 30.8009C385.048 30.8009 384.676 30.8849 384.388 31.0769C384.064 31.2689 383.86 31.5689 383.764 31.9649L382.816 31.8929C382.948 31.2449 383.272 30.7529 383.776 30.4409C384.232 30.1529 384.82 30.0089 385.564 30.0089ZM387.124 33.4049L385.696 33.4289C384.304 33.4529 383.608 33.9089 383.608 34.8089C383.608 35.0969 383.716 35.3249 383.956 35.5169C384.196 35.6969 384.508 35.7929 384.892 35.7929C385.48 35.7929 385.996 35.6009 386.452 35.2169C386.896 34.8449 387.124 34.4129 387.124 33.9329V33.4049ZM391.223 28.1729V30.1769H392.759V30.9809H391.223V34.9289C391.223 35.1569 391.259 35.3249 391.355 35.4209C391.439 35.5169 391.595 35.5769 391.811 35.5769H392.603V36.3809H391.667C391.163 36.3809 390.791 36.2489 390.575 35.9849C390.371 35.7449 390.275 35.3969 390.275 34.9289V30.9809H389.027V30.1769H390.275V28.5689L391.223 28.1729ZM396.533 30.0089C397.421 30.0089 398.069 30.2369 398.501 30.7049C398.861 31.1129 399.053 31.6769 399.053 32.3969V36.3809H398.153V35.3369C397.913 35.6729 397.589 35.9489 397.205 36.1649C396.749 36.4169 396.233 36.5489 395.657 36.5489C395.033 36.5489 394.541 36.3929 394.169 36.0809C393.785 35.7569 393.593 35.3369 393.593 34.8329C393.593 34.1249 393.869 33.5969 394.445 33.2369C394.949 32.9009 395.669 32.7209 396.605 32.7089L398.093 32.6849V32.3609C398.093 31.3169 397.553 30.8009 396.473 30.8009C396.017 30.8009 395.645 30.8849 395.357 31.0769C395.033 31.2689 394.829 31.5689 394.733 31.9649L393.785 31.8929C393.917 31.2449 394.241 30.7529 394.745 30.4409C395.201 30.1529 395.789 30.0089 396.533 30.0089ZM398.093 33.4049L396.665 33.4289C395.273 33.4529 394.577 33.9089 394.577 34.8089C394.577 35.0969 394.685 35.3249 394.925 35.5169C395.165 35.6969 395.477 35.7929 395.861 35.7929C396.449 35.7929 396.965 35.6009 397.421 35.2169C397.865 34.8449 398.093 34.4129 398.093 33.9329V33.4049Z" fill="#403B6D"/>
<path d="M101.822 27.8129H102.794V36.3809H101.822V27.8129ZM107.381 30.0089C108.917 30.0089 109.697 30.8609 109.697 32.5649V36.3809H108.737V32.6369C108.737 31.4249 108.185 30.8249 107.105 30.8249C106.673 30.8249 106.301 30.9809 105.989 31.2929C105.653 31.6289 105.473 32.0729 105.437 32.6369V36.3809H104.477V30.1769H105.437V31.0889C105.653 30.7409 105.929 30.4769 106.265 30.2969C106.601 30.1049 106.973 30.0089 107.381 30.0089ZM114.145 30.0089C115.033 30.0089 115.741 30.3329 116.257 31.0049C116.725 31.6049 116.965 32.3609 116.965 33.2969C116.965 34.2089 116.725 34.9649 116.269 35.5649C115.765 36.2129 115.081 36.5489 114.193 36.5489C113.305 36.5489 112.621 36.1169 112.141 35.2529V38.7569H111.181V30.1769H112.081V31.1969C112.525 30.4049 113.209 30.0089 114.145 30.0089ZM114.025 30.8009C113.401 30.8009 112.909 31.0409 112.573 31.5329C112.261 31.9649 112.105 32.5409 112.105 33.2369V33.3569C112.105 34.0769 112.273 34.6529 112.633 35.0969C112.969 35.5289 113.413 35.7569 113.989 35.7569C114.661 35.7569 115.165 35.5169 115.513 35.0609C115.825 34.6289 115.981 34.0409 115.981 33.2969C115.981 32.5649 115.825 31.9769 115.537 31.5449C115.189 31.0409 114.685 30.8009 114.025 30.8009ZM118.212 30.1769H119.172V33.9689C119.172 34.5569 119.292 35.0009 119.544 35.2889C119.796 35.5769 120.204 35.7329 120.768 35.7329C121.176 35.7329 121.548 35.5649 121.872 35.2529C122.208 34.9169 122.412 34.4849 122.484 33.9569V30.1769H123.444V36.3809H122.484V35.4209C121.98 36.1649 121.308 36.5489 120.468 36.5489C118.956 36.5489 118.212 35.6969 118.212 34.0169V30.1769ZM126.583 28.1729V30.1769H128.119V30.9809H126.583V34.9289C126.583 35.1569 126.619 35.3249 126.715 35.4209C126.799 35.5169 126.955 35.5769 127.171 35.5769H127.963V36.3809H127.027C126.523 36.3809 126.151 36.2489 125.935 35.9849C125.731 35.7449 125.635 35.3969 125.635 34.9289V30.9809H124.387V30.1769H125.635V28.5689L126.583 28.1729ZM133.308 27.8129H136.38C137.736 27.8129 138.756 28.1969 139.452 28.9889C140.088 29.7089 140.412 30.7529 140.412 32.0969C140.412 33.4169 140.064 34.4609 139.38 35.2049C138.66 35.9849 137.628 36.3809 136.284 36.3809H133.308V27.8129ZM134.292 28.6649V35.5289H136.116C137.232 35.5289 138.072 35.2289 138.636 34.6409C139.164 34.0649 139.44 33.2129 139.44 32.0969C139.44 30.9449 139.188 30.0929 138.696 29.5409C138.168 28.9529 137.352 28.6649 136.224 28.6649H134.292ZM144.361 30.0089C145.249 30.0089 145.897 30.2369 146.329 30.7049C146.689 31.1129 146.881 31.6769 146.881 32.3969V36.3809H145.981V35.3369C145.741 35.6729 145.417 35.9489 145.033 36.1649C144.577 36.4169 144.061 36.5489 143.485 36.5489C142.861 36.5489 142.369 36.3929 141.997 36.0809C141.613 35.7569 141.421 35.3369 141.421 34.8329C141.421 34.1249 141.697 33.5969 142.273 33.2369C142.777 32.9009 143.497 32.7209 144.433 32.7089L145.921 32.6849V32.3609C145.921 31.3169 145.381 30.8009 144.301 30.8009C143.845 30.8009 143.473 30.8849 143.185 31.0769C142.861 31.2689 142.657 31.5689 142.561 31.9649L141.613 31.8929C141.745 31.2449 142.069 30.7529 142.573 30.4409C143.029 30.1529 143.617 30.0089 144.361 30.0089ZM145.921 33.4049L144.493 33.4289C143.101 33.4529 142.405 33.9089 142.405 34.8089C142.405 35.0969 142.513 35.3249 142.753 35.5169C142.993 35.6969 143.305 35.7929 143.689 35.7929C144.277 35.7929 144.793 35.6009 145.249 35.2169C145.693 34.8449 145.921 34.4129 145.921 33.9329V33.4049ZM150.02 28.1729V30.1769H151.556V30.9809H150.02V34.9289C150.02 35.1569 150.056 35.3249 150.152 35.4209C150.236 35.5169 150.392 35.5769 150.608 35.5769H151.4V36.3809H150.464C149.96 36.3809 149.588 36.2489 149.372 35.9849C149.168 35.7449 149.072 35.3969 149.072 34.9289V30.9809H147.824V30.1769H149.072V28.5689L150.02 28.1729ZM155.33 30.0089C156.218 30.0089 156.866 30.2369 157.298 30.7049C157.658 31.1129 157.85 31.6769 157.85 32.3969V36.3809H156.95V35.3369C156.71 35.6729 156.386 35.9489 156.002 36.1649C155.546 36.4169 155.03 36.5489 154.454 36.5489C153.83 36.5489 153.338 36.3929 152.966 36.0809C152.582 35.7569 152.39 35.3369 152.39 34.8329C152.39 34.1249 152.666 33.5969 153.242 33.2369C153.746 32.9009 154.466 32.7209 155.402 32.7089L156.89 32.6849V32.3609C156.89 31.3169 156.35 30.8009 155.27 30.8009C154.814 30.8009 154.442 30.8849 154.154 31.0769C153.83 31.2689 153.626 31.5689 153.53 31.9649L152.582 31.8929C152.714 31.2449 153.038 30.7529 153.542 30.4409C153.998 30.1529 154.586 30.0089 155.33 30.0089ZM156.89 33.4049L155.462 33.4289C154.07 33.4529 153.374 33.9089 153.374 34.8089C153.374 35.0969 153.482 35.3249 153.722 35.5169C153.962 35.6969 154.274 35.7929 154.658 35.7929C155.246 35.7929 155.762 35.6009 156.218 35.2169C156.662 34.8449 156.89 34.4129 156.89 33.9329V33.4049Z" fill="#403B6D"/>
<path d="M81.0251 102.313H87.0971V103.165H82.0091V106.033H86.8091V106.885H82.0091V110.029H87.3011V110.881H81.0251V102.313ZM91.4498 104.509C92.9858 104.509 93.7658 105.361 93.7658 107.065V110.881H92.8058V107.137C92.8058 105.925 92.2538 105.325 91.1738 105.325C90.7418 105.325 90.3698 105.481 90.0578 105.793C89.7218 106.129 89.5418 106.573 89.5058 107.137V110.881H88.5458V104.677H89.5058V105.589C89.7218 105.241 89.9978 104.977 90.3338 104.797C90.6698 104.605 91.0418 104.509 91.4498 104.509ZM97.9249 104.509C98.6929 104.509 99.3049 104.689 99.7729 105.049C100.253 105.421 100.541 105.985 100.649 106.741H99.7009C99.6169 106.261 99.4249 105.901 99.1249 105.661C98.8129 105.421 98.4169 105.313 97.9249 105.313C97.3249 105.313 96.8449 105.541 96.4969 105.997C96.1609 106.441 95.9929 107.041 95.9929 107.797C95.9929 108.553 96.1489 109.153 96.4849 109.585C96.8089 110.017 97.2889 110.245 97.9129 110.245C98.9689 110.245 99.5809 109.705 99.7249 108.637H100.685C100.541 109.429 100.241 110.041 99.7609 110.449C99.2929 110.845 98.6809 111.049 97.9129 111.049C96.9769 111.049 96.2569 110.737 95.7409 110.113C95.2489 109.525 95.0089 108.757 95.0089 107.809C95.0089 106.861 95.2489 106.093 95.7409 105.493C96.2689 104.833 97.0009 104.509 97.9249 104.509ZM104.583 104.509C105.507 104.509 106.251 104.821 106.803 105.469C107.331 106.081 107.595 106.849 107.595 107.785C107.595 108.709 107.331 109.477 106.815 110.077C106.251 110.725 105.507 111.049 104.583 111.049C103.647 111.049 102.915 110.725 102.363 110.077C101.835 109.477 101.571 108.709 101.571 107.785C101.571 106.849 101.835 106.081 102.363 105.469C102.915 104.821 103.647 104.509 104.583 104.509ZM104.583 105.313C103.923 105.313 103.407 105.565 103.047 106.069C102.711 106.525 102.555 107.089 102.555 107.785C102.555 108.469 102.711 109.033 103.047 109.489C103.407 109.993 103.923 110.245 104.583 110.245C105.231 110.245 105.747 109.993 106.131 109.489C106.455 109.033 106.623 108.457 106.623 107.785C106.623 107.089 106.455 106.525 106.131 106.069C105.747 105.565 105.231 105.313 104.583 105.313ZM113.427 102.145H114.387V110.881H113.487V109.861C113.055 110.653 112.359 111.049 111.423 111.049C110.511 111.049 109.803 110.713 109.299 110.065C108.831 109.465 108.603 108.697 108.603 107.761C108.603 106.849 108.831 106.105 109.299 105.505C109.803 104.833 110.487 104.509 111.375 104.509C112.263 104.509 112.947 104.941 113.427 105.817V102.145ZM111.579 105.301C110.895 105.301 110.379 105.541 110.043 106.021C109.731 106.441 109.587 107.017 109.587 107.761C109.587 108.505 109.731 109.093 110.031 109.525C110.367 110.005 110.871 110.257 111.543 110.257C112.167 110.257 112.647 110.017 112.995 109.537C113.295 109.105 113.451 108.541 113.451 107.845V107.725C113.451 107.005 113.271 106.417 112.935 105.973C112.587 105.517 112.131 105.301 111.579 105.301ZM118.43 104.509C119.426 104.509 120.182 104.845 120.686 105.517C121.142 106.117 121.382 106.969 121.406 108.049H116.51C116.558 108.745 116.738 109.285 117.074 109.669C117.41 110.053 117.878 110.245 118.466 110.245C118.97 110.245 119.39 110.113 119.702 109.861C119.966 109.645 120.17 109.321 120.326 108.889H121.286C121.142 109.489 120.866 109.969 120.446 110.353C119.93 110.809 119.27 111.049 118.466 111.049C117.578 111.049 116.858 110.749 116.33 110.173C115.778 109.573 115.514 108.781 115.514 107.773C115.514 106.861 115.766 106.093 116.294 105.481C116.822 104.833 117.53 104.509 118.43 104.509ZM118.454 105.313C117.902 105.313 117.458 105.493 117.122 105.853C116.786 106.213 116.594 106.693 116.534 107.305H120.41C120.29 105.973 119.63 105.313 118.454 105.313ZM126.49 101.041H127.342L123.094 112.081H122.23L126.49 101.041ZM128.65 102.313H131.722C133.078 102.313 134.098 102.697 134.794 103.489C135.43 104.209 135.754 105.253 135.754 106.597C135.754 107.917 135.406 108.961 134.722 109.705C134.002 110.485 132.97 110.881 131.626 110.881H128.65V102.313ZM129.634 103.165V110.029H131.458C132.574 110.029 133.414 109.729 133.978 109.141C134.506 108.565 134.782 107.713 134.782 106.597C134.782 105.445 134.53 104.593 134.038 104.041C133.51 103.453 132.694 103.165 131.566 103.165H129.634ZM139.559 104.509C140.555 104.509 141.311 104.845 141.815 105.517C142.271 106.117 142.511 106.969 142.535 108.049H137.639C137.687 108.745 137.867 109.285 138.203 109.669C138.539 110.053 139.007 110.245 139.595 110.245C140.099 110.245 140.519 110.113 140.831 109.861C141.095 109.645 141.299 109.321 141.455 108.889H142.415C142.271 109.489 141.995 109.969 141.575 110.353C141.059 110.809 140.399 111.049 139.595 111.049C138.707 111.049 137.987 110.749 137.459 110.173C136.907 109.573 136.643 108.781 136.643 107.773C136.643 106.861 136.895 106.093 137.423 105.481C137.951 104.833 138.659 104.509 139.559 104.509ZM139.583 105.313C139.031 105.313 138.587 105.493 138.251 105.853C137.915 106.213 137.723 106.693 137.663 107.305H141.539C141.419 105.973 140.759 105.313 139.583 105.313ZM146.335 104.509C147.103 104.509 147.715 104.689 148.183 105.049C148.663 105.421 148.951 105.985 149.059 106.741H148.111C148.027 106.261 147.835 105.901 147.535 105.661C147.223 105.421 146.827 105.313 146.335 105.313C145.735 105.313 145.255 105.541 144.907 105.997C144.571 106.441 144.403 107.041 144.403 107.797C144.403 108.553 144.559 109.153 144.895 109.585C145.219 110.017 145.699 110.245 146.323 110.245C147.379 110.245 147.991 109.705 148.135 108.637H149.095C148.951 109.429 148.651 110.041 148.171 110.449C147.703 110.845 147.091 111.049 146.323 111.049C145.387 111.049 144.667 110.737 144.151 110.113C143.659 109.525 143.419 108.757 143.419 107.809C143.419 106.861 143.659 106.093 144.151 105.493C144.679 104.833 145.411 104.509 146.335 104.509ZM152.994 104.509C153.918 104.509 154.662 104.821 155.214 105.469C155.742 106.081 156.006 106.849 156.006 107.785C156.006 108.709 155.742 109.477 155.226 110.077C154.662 110.725 153.918 111.049 152.994 111.049C152.058 111.049 151.326 110.725 150.774 110.077C150.246 109.477 149.982 108.709 149.982 107.785C149.982 106.849 150.246 106.081 150.774 105.469C151.326 104.821 152.058 104.509 152.994 104.509ZM152.994 105.313C152.334 105.313 151.818 105.565 151.458 106.069C151.122 106.525 150.966 107.089 150.966 107.785C150.966 108.469 151.122 109.033 151.458 109.489C151.818 109.993 152.334 110.245 152.994 110.245C153.642 110.245 154.158 109.993 154.542 109.489C154.866 109.033 155.034 108.457 155.034 107.785C155.034 107.089 154.866 106.525 154.542 106.069C154.158 105.565 153.642 105.313 152.994 105.313ZM161.837 102.145H162.797V110.881H161.897V109.861C161.465 110.653 160.769 111.049 159.833 111.049C158.921 111.049 158.213 110.713 157.709 110.065C157.241 109.465 157.013 108.697 157.013 107.761C157.013 106.849 157.241 106.105 157.709 105.505C158.213 104.833 158.897 104.509 159.785 104.509C160.673 104.509 161.357 104.941 161.837 105.817V102.145ZM159.989 105.301C159.305 105.301 158.789 105.541 158.453 106.021C158.141 106.441 157.997 107.017 157.997 107.761C157.997 108.505 158.141 109.093 158.441 109.525C158.777 110.005 159.281 110.257 159.953 110.257C160.577 110.257 161.057 110.017 161.405 109.537C161.705 109.105 161.861 108.541 161.861 107.845V107.725C161.861 107.005 161.681 106.417 161.345 105.973C160.997 105.517 160.541 105.301 159.989 105.301ZM166.84 104.509C167.836 104.509 168.592 104.845 169.096 105.517C169.552 106.117 169.792 106.969 169.816 108.049H164.92C164.968 108.745 165.148 109.285 165.484 109.669C165.82 110.053 166.288 110.245 166.876 110.245C167.38 110.245 167.8 110.113 168.112 109.861C168.376 109.645 168.58 109.321 168.736 108.889H169.696C169.552 109.489 169.276 109.969 168.856 110.353C168.34 110.809 167.68 111.049 166.876 111.049C165.988 111.049 165.268 110.749 164.74 110.173C164.188 109.573 163.924 108.781 163.924 107.773C163.924 106.861 164.176 106.093 164.704 105.481C165.232 104.833 165.94 104.509 166.84 104.509ZM166.864 105.313C166.312 105.313 165.868 105.493 165.532 105.853C165.196 106.213 165.004 106.693 164.944 107.305H168.82C168.7 105.973 168.04 105.313 166.864 105.313Z" fill="#403B6D"/>
<path d="M26.728 147.085H30.872C33.252 147.085 34.442 148.093 34.442 150.123C34.442 152.167 33.238 153.189 30.844 153.189H28.254V157.081H26.728V147.085ZM28.254 148.387V151.887H30.746C31.502 151.887 32.048 151.747 32.398 151.467C32.734 151.187 32.916 150.739 32.916 150.123C32.916 149.507 32.734 149.059 32.384 148.807C32.034 148.527 31.488 148.387 30.746 148.387H28.254ZM38.9829 149.647C40.0469 149.647 40.8309 149.913 41.3349 150.445C41.7689 150.907 41.9929 151.579 41.9929 152.461V157.081H40.6209V156.059C40.3409 156.423 39.9909 156.717 39.5709 156.927C39.0949 157.151 38.5349 157.277 37.8909 157.277C37.1349 157.277 36.5469 157.081 36.1269 156.703C35.6649 156.325 35.4409 155.835 35.4409 155.233C35.4409 154.421 35.7629 153.791 36.4069 153.357C36.9949 152.937 37.8349 152.727 38.8989 152.699L40.5229 152.657V152.363C40.5229 151.355 39.9769 150.851 38.8849 150.851C38.4229 150.851 38.0449 150.935 37.7649 151.103C37.4289 151.299 37.2189 151.593 37.1349 151.999L35.6649 151.873C35.8189 151.089 36.2109 150.501 36.8269 150.137C37.3589 149.801 38.0869 149.647 38.9829 149.647ZM40.5229 153.735L38.9969 153.777C37.6389 153.805 36.9669 154.281 36.9669 155.177C36.9669 155.457 37.0789 155.681 37.3169 155.863C37.5409 156.045 37.8489 156.143 38.2269 156.143C38.8569 156.143 39.3889 155.947 39.8369 155.569C40.2849 155.191 40.5229 154.715 40.5229 154.155V153.735ZM47.0516 149.647C47.4156 149.647 47.7376 149.703 47.9896 149.829V151.313C47.6256 151.201 47.2756 151.159 46.9396 151.159C46.4916 151.159 46.0856 151.341 45.7356 151.705C45.3576 152.097 45.1756 152.615 45.1756 153.245V157.081H43.6916V149.843H45.1756V150.935C45.3576 150.543 45.5956 150.249 45.8756 150.053C46.2116 149.773 46.6036 149.647 47.0516 149.647ZM51.6025 149.647C53.4785 149.647 54.5145 150.403 54.6825 151.929H53.2405C53.1285 151.537 52.9605 151.271 52.7225 151.117C52.4705 150.949 52.0785 150.865 51.5745 150.865C51.1265 150.865 50.7905 150.921 50.5665 151.061C50.3005 151.201 50.1745 151.425 50.1745 151.705C50.1745 151.957 50.3705 152.167 50.7625 152.349C51.0145 152.461 51.4905 152.601 52.2185 152.783C53.0445 152.979 53.6605 153.217 54.0525 153.469C54.6265 153.833 54.9205 154.337 54.9205 154.981C54.9205 156.507 53.8425 157.277 51.7005 157.277C49.7125 157.277 48.6485 156.423 48.4805 154.743H49.9365C50.0205 155.233 50.2025 155.583 50.4545 155.779C50.7065 155.961 51.0985 156.059 51.6585 156.059C52.8065 156.059 53.3945 155.723 53.3945 155.079C53.3945 154.729 53.1705 154.449 52.7505 154.253C52.5265 154.141 52.0365 154.001 51.2945 153.833C50.4405 153.637 49.8385 153.427 49.5025 153.203C48.9425 152.853 48.6625 152.363 48.6625 151.747C48.6625 151.089 48.9285 150.571 49.4745 150.207C50.0205 149.829 50.7345 149.647 51.6025 149.647ZM59.24 149.647C60.416 149.647 61.326 150.039 61.942 150.851C62.502 151.579 62.796 152.587 62.81 153.875H57.322C57.378 154.575 57.56 155.121 57.896 155.499C58.232 155.863 58.694 156.059 59.282 156.059C59.8 156.059 60.22 155.933 60.542 155.695C60.794 155.499 61.004 155.177 61.2 154.757H62.684C62.516 155.429 62.194 156.003 61.69 156.451C61.06 156.997 60.262 157.277 59.296 157.277C58.232 157.277 57.378 156.941 56.762 156.283C56.09 155.583 55.754 154.645 55.754 153.455C55.754 152.377 56.062 151.481 56.706 150.753C57.322 150.011 58.176 149.647 59.24 149.647ZM59.282 150.865C58.722 150.865 58.288 151.019 57.952 151.355C57.644 151.677 57.434 152.139 57.35 152.755H61.256C61.116 151.495 60.458 150.865 59.282 150.865ZM67.4363 149.647C67.8003 149.647 68.1223 149.703 68.3743 149.829V151.313C68.0103 151.201 67.6603 151.159 67.3243 151.159C66.8763 151.159 66.4703 151.341 66.1203 151.705C65.7423 152.097 65.5603 152.615 65.5603 153.245V157.081H64.0763V149.843H65.5603V150.935C65.7423 150.543 65.9803 150.249 66.2603 150.053C66.5963 149.773 66.9883 149.647 67.4363 149.647ZM71.9873 149.647C73.8633 149.647 74.8993 150.403 75.0673 151.929H73.6253C73.5133 151.537 73.3453 151.271 73.1073 151.117C72.8553 150.949 72.4633 150.865 71.9593 150.865C71.5113 150.865 71.1753 150.921 70.9513 151.061C70.6853 151.201 70.5593 151.425 70.5593 151.705C70.5593 151.957 70.7553 152.167 71.1473 152.349C71.3993 152.461 71.8753 152.601 72.6033 152.783C73.4293 152.979 74.0453 153.217 74.4373 153.469C75.0113 153.833 75.3053 154.337 75.3053 154.981C75.3053 156.507 74.2273 157.277 72.0853 157.277C70.0973 157.277 69.0333 156.423 68.8653 154.743H70.3213C70.4053 155.233 70.5873 155.583 70.8393 155.779C71.0913 155.961 71.4833 156.059 72.0433 156.059C73.1913 156.059 73.7793 155.723 73.7793 155.079C73.7793 154.729 73.5553 154.449 73.1353 154.253C72.9113 154.141 72.4213 154.001 71.6793 153.833C70.8253 153.637 70.2233 153.427 69.8873 153.203C69.3273 152.853 69.0473 152.363 69.0473 151.747C69.0473 151.089 69.3133 150.571 69.8593 150.207C70.4053 149.829 71.1193 149.647 71.9873 149.647Z" fill="#403B6D"/>
<path d="M30.5601 251.281C31.7221 251.281 32.6321 251.519 33.2901 252.023C33.9901 252.541 34.3821 253.339 34.4801 254.431H32.9681C32.8281 253.787 32.5761 253.311 32.1841 253.031C31.7921 252.737 31.2321 252.597 30.4761 252.597C29.8181 252.597 29.3141 252.695 28.9641 252.891C28.5301 253.115 28.3201 253.479 28.3201 253.983C28.3201 254.431 28.5581 254.781 29.0621 255.047C29.2861 255.173 29.8601 255.383 30.7981 255.663C32.1421 256.083 33.0241 256.405 33.4161 256.643C34.2701 257.161 34.7041 257.875 34.7041 258.799C34.7041 259.695 34.3541 260.395 33.6541 260.913C32.9541 261.417 31.9741 261.669 30.7141 261.669C29.4961 261.669 28.5441 261.417 27.8581 260.941C27.0321 260.353 26.5841 259.429 26.5001 258.169H28.0121C28.1241 258.953 28.4041 259.527 28.8521 259.863C29.2581 260.171 29.8741 260.325 30.7141 260.325C31.4701 260.325 32.0721 260.185 32.5201 259.933C32.9681 259.681 33.1921 259.331 33.1921 258.883C33.1921 258.323 32.8701 257.889 32.2401 257.567C32.0161 257.455 31.3581 257.231 30.2521 256.895C29.0201 256.503 28.2641 256.237 27.9561 256.069C27.1861 255.607 26.8081 254.935 26.8081 254.067C26.8081 253.185 27.1721 252.499 27.9141 251.995C28.6141 251.519 29.4961 251.281 30.5601 251.281ZM39.2045 254.039C40.1285 254.039 40.8705 254.249 41.4305 254.669C41.9905 255.117 42.3545 255.789 42.4945 256.685H41.0245C40.9265 256.195 40.7305 255.831 40.4225 255.607C40.1145 255.369 39.7085 255.257 39.2045 255.257C38.5885 255.257 38.1125 255.481 37.7625 255.943C37.3985 256.391 37.2305 257.035 37.2305 257.847C37.2305 258.659 37.3985 259.303 37.7485 259.765C38.0705 260.213 38.5465 260.451 39.1905 260.451C40.2965 260.451 40.9125 259.891 41.0525 258.799H42.5225C42.3545 259.765 41.9765 260.493 41.4165 260.969C40.8565 261.431 40.1005 261.669 39.1765 261.669C38.0705 261.669 37.2165 261.305 36.6005 260.577C35.9985 259.877 35.7045 258.981 35.7045 257.861C35.7045 256.769 35.9985 255.873 36.5865 255.173C37.2165 254.417 38.0845 254.039 39.2045 254.039ZM43.7912 251.281H45.2752V255.257C45.5412 254.837 45.8772 254.515 46.2832 254.319C46.6472 254.123 47.0532 254.039 47.5152 254.039C48.3832 254.039 49.0412 254.291 49.4892 254.809C49.9092 255.299 50.1192 256.027 50.1192 256.979V261.473H48.6352V257.231C48.6352 256.587 48.4952 256.111 48.2432 255.775C47.9632 255.425 47.5292 255.257 46.9692 255.257C46.4652 255.257 46.0592 255.453 45.7512 255.859C45.4292 256.265 45.2752 256.783 45.2752 257.413V261.473H43.7912V251.281ZM54.8689 254.039C56.0449 254.039 56.9549 254.431 57.5709 255.243C58.1309 255.971 58.4249 256.979 58.4389 258.267H52.9509C53.0069 258.967 53.1889 259.513 53.5249 259.891C53.8609 260.255 54.3229 260.451 54.9109 260.451C55.4289 260.451 55.8489 260.325 56.1709 260.087C56.4229 259.891 56.6329 259.569 56.8289 259.149H58.3129C58.1449 259.821 57.8229 260.395 57.3189 260.843C56.6889 261.389 55.8909 261.669 54.9249 261.669C53.8609 261.669 53.0069 261.333 52.3909 260.675C51.7189 259.975 51.3829 259.037 51.3829 257.847C51.3829 256.769 51.6909 255.873 52.3349 255.145C52.9509 254.403 53.8049 254.039 54.8689 254.039ZM54.9109 255.257C54.3509 255.257 53.9169 255.411 53.5809 255.747C53.2729 256.069 53.0629 256.531 52.9789 257.147H56.8849C56.7449 255.887 56.0869 255.257 54.9109 255.257ZM63.1772 254.039C64.2412 254.039 65.0112 254.445 65.4592 255.257C65.7812 254.809 66.1312 254.487 66.4952 254.305C66.8312 254.123 67.2372 254.039 67.7272 254.039C68.4692 254.039 69.0852 254.277 69.5752 254.781C70.0512 255.271 70.3032 255.915 70.3032 256.727V261.473H68.8192V256.979C68.8192 256.391 68.6932 255.957 68.4412 255.691C68.1892 255.411 67.7692 255.285 67.2092 255.285C66.7892 255.285 66.4532 255.439 66.1732 255.747C65.8932 256.055 65.7532 256.489 65.7532 257.021V261.473H64.2692V256.993C64.2692 255.845 63.7652 255.285 62.7852 255.285C62.3092 255.285 61.9172 255.467 61.6372 255.831C61.3292 256.181 61.1892 256.615 61.1892 257.119V261.473H59.7052V254.235H61.1892V255.033C61.7772 254.361 62.4492 254.039 63.1772 254.039ZM75.2446 254.039C76.3086 254.039 77.0926 254.305 77.5966 254.837C78.0306 255.299 78.2546 255.971 78.2546 256.853V261.473H76.8826V260.451C76.6026 260.815 76.2526 261.109 75.8326 261.319C75.3566 261.543 74.7966 261.669 74.1526 261.669C73.3966 261.669 72.8086 261.473 72.3886 261.095C71.9266 260.717 71.7026 260.227 71.7026 259.625C71.7026 258.813 72.0246 258.183 72.6686 257.749C73.2566 257.329 74.0966 257.119 75.1606 257.091L76.7846 257.049V256.755C76.7846 255.747 76.2386 255.243 75.1466 255.243C74.6846 255.243 74.3066 255.327 74.0266 255.495C73.6906 255.691 73.4806 255.985 73.3966 256.391L71.9266 256.265C72.0806 255.481 72.4726 254.893 73.0886 254.529C73.6206 254.193 74.3486 254.039 75.2446 254.039ZM76.7846 258.127L75.2586 258.169C73.9006 258.197 73.2286 258.673 73.2286 259.569C73.2286 259.849 73.3406 260.073 73.5786 260.255C73.8026 260.437 74.1106 260.535 74.4886 260.535C75.1186 260.535 75.6506 260.339 76.0986 259.961C76.5466 259.583 76.7846 259.107 76.7846 258.547V258.127ZM82.6553 254.039C84.5313 254.039 85.5673 254.795 85.7353 256.321H84.2933C84.1813 255.929 84.0133 255.663 83.7753 255.509C83.5233 255.341 83.1313 255.257 82.6273 255.257C82.1793 255.257 81.8433 255.313 81.6193 255.453C81.3533 255.593 81.2273 255.817 81.2273 256.097C81.2273 256.349 81.4233 256.559 81.8153 256.741C82.0673 256.853 82.5433 256.993 83.2713 257.175C84.0973 257.371 84.7133 257.609 85.1053 257.861C85.6793 258.225 85.9733 258.729 85.9733 259.373C85.9733 260.899 84.8953 261.669 82.7533 261.669C80.7653 261.669 79.7013 260.815 79.5333 259.135H80.9893C81.0733 259.625 81.2553 259.975 81.5073 260.171C81.7593 260.353 82.1513 260.451 82.7113 260.451C83.8593 260.451 84.4473 260.115 84.4473 259.471C84.4473 259.121 84.2233 258.841 83.8033 258.645C83.5793 258.533 83.0893 258.393 82.3473 258.225C81.4933 258.029 80.8913 257.819 80.5553 257.595C79.9953 257.245 79.7153 256.755 79.7153 256.139C79.7153 255.481 79.9813 254.963 80.5273 254.599C81.0733 254.221 81.7873 254.039 82.6553 254.039Z" fill="#403B6D"/>
<path d="M178.828 119.849C179.023 120.044 179.34 120.044 179.535 119.849L182.717 116.667C182.912 116.471 182.912 116.155 182.717 115.96C182.522 115.764 182.205 115.764 182.01 115.96L179.182 118.788L176.353 115.96C176.158 115.764 175.841 115.764 175.646 115.96C175.451 116.155 175.451 116.471 175.646 116.667L178.828 119.849ZM179.682 119.495V118.531H178.682V119.495H179.682ZM179.682 116.603V114.675H178.682V116.603H179.682ZM179.682 112.747V110.819H178.682V112.747H179.682ZM179.682 108.891V106.963H178.682V108.891H179.682ZM179.682 105.035V104.071H178.682V105.035H179.682ZM179.682 104.071C179.682 103.836 179.705 103.608 179.748 103.387L178.767 103.193C178.711 103.477 178.682 103.771 178.682 104.071H179.682ZM180.271 102.126C180.527 101.745 180.855 101.416 181.237 101.16L180.681 100.329C180.191 100.657 179.768 101.08 179.44 101.57L180.271 102.126ZM182.498 100.637C182.719 100.594 182.947 100.571 183.182 100.571V99.5708C182.882 99.5708 182.588 99.6002 182.304 99.6564L182.498 100.637ZM183.182 100.571H184.15V99.5708H183.182V100.571ZM186.088 100.571H188.025V99.5708H186.088V100.571ZM189.963 100.571H191.9V99.5708H189.963V100.571ZM193.838 100.571H195.775V99.5708H193.838V100.571ZM197.713 100.571H199.65V99.5708H197.713V100.571ZM201.588 100.571H203.525V99.5708H201.588V100.571ZM205.463 100.571H207.4V99.5708H205.463V100.571ZM209.338 100.571H211.275V99.5708H209.338V100.571ZM213.213 100.571H215.15V99.5708H213.213V100.571ZM217.088 100.571H219.025V99.5708H217.088V100.571ZM220.963 100.571H222.9V99.5708H220.963V100.571ZM224.838 100.571H226.775V99.5708H224.838V100.571ZM228.713 100.571H230.65V99.5708H228.713V100.571ZM232.588 100.571H234.525V99.5708H232.588V100.571ZM236.463 100.571H238.4V99.5708H236.463V100.571ZM240.338 100.571H242.275V99.5708H240.338V100.571ZM244.213 100.571H245.182V99.5708H244.213V100.571ZM245.182 100.571C245.482 100.571 245.775 100.541 246.059 100.485L245.865 99.5042C245.645 99.5478 245.416 99.5708 245.182 99.5708V100.571ZM247.682 99.8125C248.173 99.4842 248.595 99.0619 248.923 98.5714L248.092 98.0151C247.837 98.397 247.508 98.7259 247.126 98.9816L247.682 99.8125ZM249.596 96.9485C249.652 96.6642 249.682 96.3707 249.682 96.0708H248.682C248.682 96.3052 248.659 96.5337 248.615 96.7544L249.596 96.9485ZM249.682 96.0708V94.9912H248.682V96.0708H249.682ZM249.682 92.8319V90.6727H248.682V92.8319H249.682ZM249.682 88.5135V86.3542H248.682V88.5135H249.682ZM249.682 84.195V82.0357H248.682V84.195H249.682ZM249.682 79.8765V78.7969H248.682V79.8765H249.682Z" fill="#189BFE"/>
<path d="M319.532 119.849C319.337 120.044 319.02 120.044 318.825 119.849L315.643 116.667C315.448 116.471 315.448 116.155 315.643 115.96C315.838 115.764 316.155 115.764 316.35 115.96L319.179 118.788L322.007 115.96C322.202 115.764 322.519 115.764 322.714 115.96C322.91 116.155 322.91 116.471 322.714 116.667L319.532 119.849ZM318.679 119.495V118.531H319.679V119.495H318.679ZM318.679 116.603V114.675H319.679V116.603H318.679ZM318.679 112.747V110.819H319.679V112.747H318.679ZM318.679 108.891V106.963H319.679V108.891H318.679ZM318.679 105.035V104.071H319.679V105.035H318.679ZM318.679 104.071C318.679 103.836 318.656 103.608 318.612 103.387L319.593 103.193C319.649 103.477 319.679 103.771 319.679 104.071H318.679ZM318.089 102.126C317.834 101.745 317.505 101.416 317.123 101.16L317.679 100.329C318.17 100.657 318.592 101.08 318.92 101.57L318.089 102.126ZM315.862 100.637C315.642 100.594 315.413 100.571 315.179 100.571V99.5708C315.479 99.5708 315.772 99.6002 316.056 99.6564L315.862 100.637ZM315.179 100.571H314.21V99.5708H315.179V100.571ZM312.272 100.571H310.335V99.5708H312.272V100.571ZM308.397 100.571H306.46V99.5708H308.397V100.571ZM304.522 100.571H302.585V99.5708H304.522V100.571ZM300.647 100.571H298.71V99.5708H300.647V100.571ZM296.772 100.571H294.835V99.5708H296.772V100.571ZM292.897 100.571H290.96V99.5708H292.897V100.571ZM289.022 100.571H287.085V99.5708H289.022V100.571ZM285.147 100.571H283.21V99.5708H285.147V100.571ZM281.272 100.571H279.335V99.5708H281.272V100.571ZM277.397 100.571H275.46V99.5708H277.397V100.571ZM273.522 100.571H271.585V99.5708H273.522V100.571ZM269.647 100.571H267.71V99.5708H269.647V100.571ZM265.772 100.571H263.835V99.5708H265.772V100.571ZM261.897 100.571H259.96V99.5708H261.897V100.571ZM258.022 100.571H256.085V99.5708H258.022V100.571ZM254.147 100.571H253.179V99.5708H254.147V100.571ZM253.179 100.571C252.879 100.571 252.585 100.541 252.301 100.485L252.495 99.5042C252.716 99.5478 252.944 99.5708 253.179 99.5708V100.571ZM250.678 99.8125C250.188 99.4842 249.765 99.0619 249.437 98.5714L250.268 98.0151C250.524 98.397 250.853 98.7259 251.234 98.9816L250.678 99.8125ZM248.764 96.9485C248.708 96.6642 248.679 96.3707 248.679 96.0708H249.679C249.679 96.3052 249.702 96.5337 249.745 96.7544L248.764 96.9485ZM248.679 96.0708V94.9912H249.679V96.0708H248.679ZM248.679 92.8319V90.6727H249.679V92.8319H248.679ZM248.679 88.5135V86.3542H249.679V88.5135H248.679ZM248.679 84.195V82.0357H249.679V84.195H248.679ZM248.679 79.8765V78.7969H249.679V79.8765H248.679Z" fill="#189BFE"/>
</svg>
